<?xml version="1.0" standalone="no"?>
<!DOCTYPE svg PUBLIC "-//W3C//DTD SVG 20010904//EN"
 "http://www.w3.org/TR/2001/REC-SVG-20010904/DTD/svg10.dtd">
<svg version="1.0" xmlns="http://www.w3.org/2000/svg"
 width="200.000000pt" height="200.000000pt" viewBox="0 0 200.000000 200.000000"
 preserveAspectRatio="xMidYMid meet">

<g transform="translate(0.000000,200.000000) scale(0.100000,-0.100000)"
fill="#000000" stroke="none">
<path d="M940 1865 l0 -65 38 6 c45 7 55 14 19 14 -35 0 -39 40 -4 41 l22 0
-22 9 c-28 12 -30 40 -3 40 11 0 20 5 20 10 0 6 -16 10 -35 10 l-35 0 0 -65z"/>
<path d="M826 1912 c-7 -12 8 -117 17 -114 4 1 21 2 37 2 17 0 30 4 30 8 0 5
-10 8 -22 8 -18 -1 -24 5 -26 29 -6 66 -20 93 -36 67z"/>
<path d="M1066 1898 c-20 -28 -20 -48 0 -76 13 -19 24 -22 57 -20 35 2 43 7
45 26 4 28 -18 29 -25 1 -4 -14 -12 -19 -27 -17 -16 2 -22 11 -24 39 -4 45 19
69 49 51 26 -16 34 -15 19 3 -19 23 -76 19 -94 -7z"/>
<path d="M1220 1858 c-6 -24 -13 -50 -16 -59 -3 -11 6 -19 31 -26 20 -7 37 -7
41 -2 3 5 -4 9 -15 9 -14 0 -21 6 -21 20 0 15 7 20 28 20 25 1 26 1 7 12 -11
6 -21 12 -23 13 -1 1 0 9 3 17 4 10 14 14 28 11 15 -4 19 -2 12 4 -5 6 -22 13
-37 17 -25 6 -28 3 -38 -36z"/>
<path d="M706 1882 c-8 -13 24 -112 37 -112 22 0 57 12 57 19 0 4 -10 7 -22 7
-18 -1 -24 7 -33 43 -10 43 -27 62 -39 43z"/>
<path d="M575 1825 c-14 -13 -25 -33 -25 -45 0 -28 35 -60 65 -60 14 0 34 9
45 20 11 11 20 31 20 45 0 30 -32 65 -60 65 -12 0 -32 -11 -45 -25z m59 -17
c9 -12 16 -33 16 -46 0 -32 -39 -26 -59 9 -27 49 12 82 43 37z"/>
<path d="M1404 1812 c-26 -17 -35 -51 -22 -79 31 -64 118 -48 118 22 0 49 -57
83 -96 57z m66 -39 c0 -46 -52 -85 -66 -49 -9 23 24 76 46 76 15 0 20 -7 20
-27z"/>
<path d="M463 1769 c-23 -8 -43 -38 -43 -62 0 -27 35 -59 65 -59 27 0 65 31
65 53 0 17 -18 9 -23 -11 -7 -28 -43 -25 -63 5 -22 34 -15 59 21 65 20 4 25 8
15 11 -8 4 -25 3 -37 -2z"/>
<path d="M825 1736 c-317 -74 -555 -315 -630 -637 -22 -95 -23 -269 -1 -367
62 -286 269 -520 541 -614 400 -138 826 46 1010 435 101 212 105 487 12 699
-100 226 -286 393 -522 468 -90 29 -317 37 -410 16z m149 -52 c9 -3 16 -14 16
-24 0 -39 11 -50 50 -50 33 0 39 4 49 31 9 27 14 30 48 27 36 -3 38 -5 43 -42
4 -34 10 -41 40 -51 33 -12 36 -11 61 18 23 27 27 29 50 17 34 -18 38 -29 27
-63 -9 -23 -8 -31 3 -38 8 -4 23 -14 33 -22 18 -13 23 -12 48 6 24 18 31 19
52 7 34 -18 38 -34 18 -70 -17 -29 -17 -30 10 -56 24 -25 29 -26 57 -14 24 10
34 10 46 0 27 -22 28 -50 4 -76 -22 -23 -22 -25 -6 -59 14 -30 22 -35 51 -35
60 0 79 -68 26 -90 -21 -9 -29 -18 -26 -29 3 -9 8 -28 12 -43 5 -24 11 -28 40
-28 34 0 34 -1 34 -44 0 -43 -1 -45 -32 -48 -31 -3 -33 -6 -36 -46 -3 -40 -1
-43 27 -53 27 -10 31 -16 31 -49 0 -38 0 -39 -42 -42 -40 -3 -43 -5 -51 -40
-8 -34 -6 -40 18 -61 27 -23 27 -23 11 -56 -15 -28 -21 -32 -44 -26 -15 4 -31
7 -36 8 -5 1 -18 -13 -28 -31 -19 -30 -19 -34 -4 -57 21 -32 20 -48 -5 -71
-20 -18 -22 -18 -51 -1 -31 18 -31 18 -60 -10 -28 -26 -29 -36 -13 -74 4 -11
-2 -24 -16 -38 -29 -26 -30 -26 -63 4 -26 24 -27 24 -62 8 -32 -16 -35 -20
-32 -57 3 -38 1 -40 -31 -50 -29 -8 -36 -7 -45 8 -26 43 -30 45 -66 38 -29 -7
-36 -12 -38 -37 -4 -34 -26 -55 -59 -55 -17 0 -25 9 -34 40 -11 38 -14 40 -51
40 -35 0 -40 -4 -50 -31 -9 -27 -14 -30 -47 -27 -34 3 -36 5 -41 42 -4 35 -9
41 -40 49 -31 8 -37 6 -58 -19 -23 -27 -24 -27 -59 -10 -24 12 -33 21 -29 32
19 49 17 59 -14 78 -31 18 -33 18 -66 0 l-34 -19 -26 26 c-25 25 -25 26 -7 57
18 31 18 31 -11 61 -23 24 -33 28 -47 21 -33 -18 -56 -11 -69 20 -12 28 -10
32 14 51 l26 21 -22 39 c-20 36 -24 39 -54 33 -26 -5 -34 -2 -43 14 -19 36
-13 59 19 72 34 14 33 12 20 62 -9 32 -15 37 -43 40 -30 3 -32 5 -32 43 0 36
3 40 30 45 27 5 30 9 33 47 3 38 0 43 -28 58 -26 14 -31 21 -28 48 3 29 7 32
43 37 36 5 40 8 49 44 8 37 7 41 -20 63 -28 22 -28 24 -13 50 13 24 21 28 56
25 36 -2 41 1 58 32 18 33 18 36 2 54 -22 25 -21 41 4 69 l22 22 29 -21 30
-21 30 31 c30 29 30 32 18 63 -13 29 -12 33 9 50 31 25 46 24 70 -7 l21 -26
32 19 c28 17 33 25 33 58 0 36 3 40 34 49 29 8 36 7 45 -8 28 -47 31 -48 66
-39 29 8 36 15 38 39 6 49 32 65 76 48z"/>
<path d="M960 1487 c0 -3 9 -24 20 -48 32 -70 27 -137 -17 -233 -33 -69 -38
-91 -38 -151 0 -59 4 -76 27 -109 l26 -38 -65 -85 c-36 -46 -69 -81 -73 -76
-41 48 -120 154 -120 163 0 6 12 31 26 56 29 50 26 77 -8 72 -17 -2 -23 -10
-23 -28 -1 -37 -15 -71 -27 -64 -19 12 -48 88 -48 127 0 60 23 101 113 196 50
52 90 104 97 125 15 46 2 69 -16 27 -7 -17 -54 -74 -103 -126 -107 -112 -134
-159 -133 -232 0 -51 34 -131 62 -148 5 -3 -23 -47 -62 -98 l-70 -92 151 -5
150 -5 -74 -95 -74 -95 149 -5 149 -5 -71 -93 c-39 -51 -69 -95 -66 -97 3 -3
79 -4 168 -3 l163 3 -76 95 -77 95 150 3 c83 1 150 5 150 9 0 3 -34 48 -75 99
l-76 94 151 0 c82 0 150 3 150 6 0 4 -31 46 -131 179 -4 6 6 32 22 59 34 54
32 76 -6 76 -22 0 -25 -4 -25 -34 0 -18 -6 -39 -14 -45 -12 -10 -18 -6 -32 20
-13 25 -15 47 -10 96 3 35 9 91 12 126 8 76 -12 131 -71 196 -42 46 -68 56
-35 14 73 -96 84 -139 63 -254 -17 -98 -12 -148 21 -206 l24 -42 -65 -83 c-36
-46 -68 -82 -70 -81 -3 1 -33 39 -69 84 -70 90 -68 76 -20 151 23 35 15 58
-19 58 -23 0 -26 -4 -24 -27 4 -34 -16 -72 -29 -58 -14 15 -32 74 -32 104 0
14 16 71 35 125 43 121 46 190 13 256 -13 24 -29 46 -35 48 -7 2 -13 2 -13 -1z
m113 -857 c-37 -49 -70 -89 -73 -89 -5 0 -122 156 -128 171 -2 4 58 8 133 8
l136 0 -68 -90z"/>
<path d="M1531 1706 c-17 -25 -31 -49 -31 -55 0 -18 28 -13 39 7 8 14 13 15
30 4 12 -7 21 -8 21 -3 0 6 -8 14 -17 20 -15 8 -15 11 -3 25 9 12 16 14 24 6
16 -16 30 -12 16 6 -32 38 -48 36 -79 -10z"/>
<path d="M302 1637 c-14 -16 65 -104 80 -89 7 7 -2 25 -27 56 -21 25 -39 46
-40 46 -1 0 -7 -6 -13 -13z"/>
<path d="M1665 1580 l-39 -40 24 -25 c26 -28 52 -35 28 -7 -9 9 -13 23 -11 30
6 14 33 16 33 2 0 -5 5 -10 10 -10 7 0 7 6 1 18 -15 29 7 47 31 25 27 -24 22
0 -5 25 -13 12 -25 22 -28 22 -3 0 -22 -18 -44 -40z"/>
<path d="M261 1554 l24 -27 -38 7 c-30 6 -39 4 -44 -10 -4 -12 6 -28 38 -55
52 -44 65 -43 23 2 l-29 32 53 -6 c64 -7 67 5 10 51 -48 39 -71 42 -37 6z"/>
<path d="M1742 1487 c-24 -17 -38 -33 -32 -35 6 -2 19 2 28 10 39 34 43 30 23
-21 -10 -28 -15 -53 -10 -56 9 -6 98 55 99 68 0 12 -17 8 -30 -8 -22 -26 -31
-16 -16 19 10 25 11 37 3 45 -15 15 -16 15 -65 -22z"/>
<path d="M134 1416 c-21 -33 -15 -65 19 -90 26 -19 30 -19 54 -6 62 35 47 120
-22 120 -26 0 -39 -6 -51 -24z m70 -17 c49 -38 23 -74 -33 -44 -17 8 -31 24
-31 34 0 37 25 41 64 10z"/>
<path d="M1812 1364 c-30 -21 -30 -73 1 -103 14 -12 30 -19 40 -15 22 8 9 34
-16 31 -33 -3 -35 37 -3 58 35 23 70 11 63 -21 -2 -14 0 -27 4 -30 5 -3 9 11
9 30 0 36 -27 66 -60 66 -9 0 -26 -7 -38 -16z"/>
<path d="M68 1275 c-19 -43 32 -76 62 -40 15 18 40 20 40 4 0 -7 -8 -18 -17
-25 -17 -13 -17 -13 0 -14 22 0 38 39 25 63 -11 21 -37 22 -66 1 -28 -19 -41
-10 -24 16 8 13 8 20 2 20 -6 0 -15 -11 -22 -25z"/>
<path d="M1883 1219 c-37 -14 -50 -24 -46 -35 6 -15 19 -13 81 12 17 7 32 20
32 28 0 20 -3 20 -67 -5z"/>
<path d="M36 1174 c-6 -16 -3 -18 62 -37 49 -15 52 -15 52 2 0 24 -106 56
-114 35z"/>
<path d="M1896 1139 c-58 -14 -59 -23 -1 -15 l49 6 -37 -38 c-20 -21 -37 -42
-37 -46 0 -10 88 2 110 15 11 6 5 8 -20 9 l-35 0 29 23 c20 16 27 29 23 40 -7
19 -22 20 -81 6z"/>
<path d="M72 1083 c-81 -19 -83 -39 -7 -76 53 -26 73 -27 39 -2 -21 15 -11 51
16 58 11 3 20 12 20 21 0 9 -1 16 -2 15 -2 0 -31 -7 -66 -16z m8 -49 c0 -11
-5 -14 -16 -10 -9 3 -18 6 -20 6 -3 0 -2 5 1 10 10 16 35 12 35 -6z"/>
<path d="M1895 992 c-17 -6 -19 -13 -14 -42 4 -21 7 -26 8 -12 1 15 7 22 20
22 12 0 21 -8 24 -22 l4 -23 2 23 c1 29 41 32 41 2 0 -11 5 -20 11 -20 6 0 9
16 7 38 -3 36 -4 37 -43 39 -22 1 -49 -2 -60 -5z"/>
<path d="M16 944 c-9 -9 -16 -32 -16 -55 0 -38 1 -39 38 -39 52 0 82 10 82 26
0 8 -11 14 -27 14 l-28 1 28 15 c15 8 27 21 27 29 0 18 -5 18 -30 5 -13 -7
-21 -6 -30 5 -16 19 -25 19 -44 -1z m44 -39 c0 -8 -9 -15 -20 -15 -11 0 -20 7
-20 15 0 8 9 15 20 15 11 0 20 -7 20 -15z"/>
<path d="M1876 858 c-9 -34 -7 -58 4 -58 6 0 10 9 10 20 0 29 37 27 43 -2 l4
-23 2 23 c2 35 41 30 42 -5 1 -24 3 -22 10 11 5 21 8 40 7 41 -2 1 -28 6 -59
9 -53 7 -57 6 -63 -16z"/>
<path d="M1867 753 c-14 -13 -6 -22 26 -28 57 -12 67 -16 67 -31 0 -10 -8 -14
-22 -12 -13 2 -22 9 -20 16 2 13 -11 15 -45 6 -13 -4 -23 -13 -23 -21 0 -11 7
-14 21 -10 15 4 27 -1 39 -15 21 -26 46 -19 60 17 20 52 14 63 -40 74 -60 13
-55 13 -63 4z"/>
<path d="M115 740 c3 -5 10 -10 16 -10 5 0 9 5 9 10 0 6 -7 10 -16 10 -8 0
-12 -4 -9 -10z"/>
<path d="M93 672 c-39 -11 -53 -20 -53 -33 0 -15 5 -17 29 -13 38 8 53 -23 16
-32 -23 -6 -32 -23 -19 -36 3 -4 29 2 57 11 58 20 71 46 23 46 -38 0 -45 22
-12 35 17 6 24 14 20 25 -3 8 -7 14 -8 14 0 -1 -25 -8 -53 -17z"/>
<path d="M1827 616 c-4 -11 10 -20 54 -35 56 -19 59 -19 59 -2 0 12 -13 22
-41 30 -23 7 -47 15 -54 17 -7 3 -15 -2 -18 -10z"/>
<path d="M1800 553 c0 -5 17 -18 38 -28 l37 -19 -52 -9 c-29 -6 -53 -14 -53
-18 0 -11 100 -62 107 -55 3 2 -8 11 -24 19 -30 16 -23 23 27 29 14 2 26 10
28 18 2 13 -27 33 -100 68 -5 2 -8 0 -8 -5z"/>
<path d="M210 480 c0 -5 5 -10 10 -10 6 0 10 5 10 10 0 6 -4 10 -10 10 -5 0
-10 -4 -10 -10z"/>
<path d="M215 420 c-11 -18 5 -31 25 -20 13 7 21 6 30 -5 16 -19 7 -40 -24
-61 -33 -21 -56 -12 -56 21 0 14 -4 25 -10 25 -15 0 -12 -33 6 -58 31 -44 114
-19 114 35 0 45 -66 94 -85 63z"/>
<path d="M1717 403 c-24 -28 -32 -72 -14 -79 26 -10 43 7 22 22 -24 18 -12 44
20 44 28 0 68 -34 62 -53 -2 -7 -13 -16 -25 -22 -12 -5 -22 -13 -22 -17 0 -23
49 8 60 38 10 26 -1 61 -24 76 -20 14 -63 8 -79 -9z"/>
</g>
</svg>
